<?xml version="1.0" encoding="iso-8859-1"?>
<!-- Generator: Adobe Illustrator 16.0.0, SVG Export Plug-In . SVG Version: 6.00 Build 0)  -->
<!DOCTYPE svg PUBLIC "-//W3C//DTD SVG 1.1//EN" "http://www.w3.org/Graphics/SVG/1.1/DTD/svg11.dtd">
<svg version="1.1" id="Capa_1" xmlns="http://www.w3.org/2000/svg" xmlns:xlink="http://www.w3.org/1999/xlink" x="0px" y="0px"
	 width="275.785px" height="275.785px" viewBox="0 0 275.785 275.785" style="enable-background:new 0 0 275.785 275.785;"
	 xml:space="preserve">
<g>
	<g>
		<path d="M137.893,275.785c53.411,0,96.87-43.45,96.87-96.861c0-52.308-90.786-171.025-94.65-176.051L137.893,0l-2.22,2.892
			c-3.859,5.018-94.651,123.744-94.651,176.042C41.022,232.335,84.48,275.785,137.893,275.785z M137.893,9.223
			c14.177,18.895,91.267,123.692,91.267,169.701c0,50.31-40.952,91.255-91.267,91.255c-50.324,0-91.268-40.945-91.268-91.255
			C46.625,132.915,123.712,28.118,137.893,9.223z"/>
	</g>
</g>
<g>
</g>
<g>
</g>
<g>
</g>
<g>
</g>
<g>
</g>
<g>
</g>
<g>
</g>
<g>
</g>
<g>
</g>
<g>
</g>
<g>
</g>
<g>
</g>
<g>
</g>
<g>
</g>
<g>
</g>
</svg>
